<?xml version="1.0" encoding="utf-8"?>
<!-- Generator: Adobe Illustrator 18.0.0, SVG Export Plug-In . SVG Version: 6.00 Build 0)  -->
<!DOCTYPE svg PUBLIC "-//W3C//DTD SVG 1.1//EN" "http://www.w3.org/Graphics/SVG/1.1/DTD/svg11.dtd">
<svg version="1.1" id="Capa_1" xmlns="http://www.w3.org/2000/svg" xmlns:xlink="http://www.w3.org/1999/xlink" x="0px" y="0px"
	 viewBox="106 72 404 654" enable-background="new 106 72 404 654" xml:space="preserve">
<g>
	<path fill="#FFFFFF" d="M436.9,130.8h-66.7V90H247.8v40.8h-66.7c-19.5,0-35.3,15.9-35.3,35.3v500.5c0,19.5,15.9,35.3,35.3,35.3
		h255.7c19.5,0,35.3-15.9,35.3-35.3V166.1C472.2,146.7,456.3,130.8,436.9,130.8z M451.8,666.7c0,8.2-6.7,14.9-14.9,14.9H181.1
		c-8.2,0-14.9-6.7-14.9-14.9V166.1c0-8.2,6.7-14.9,14.9-14.9h66.7h122.4h66.7c8.2,0,14.9,6.7,14.9,14.9V666.7z"/>
	<path fill="#FFFFFF" d="M380.4,385.8h-30.6V264.5c0.1-2.7-0.7-5.3-2.4-7.3c-3.9-4.8-12.9-4.7-16.7,0c-0.3,0.3-0.5,0.7-0.7,1.1
		l-101,163c-1.9,3.2-2,7.1-0.2,10.3c1.8,3.2,5.2,5.2,8.9,5.2h40.8l0,131.9h0c0,2.4,0.8,4.9,2.2,6.7c1.9,2.5,5.4,4.2,8.6,4.2
		c3.1,0,6.5-1.6,8.4-4.1c0.4-0.5,0.8-1.1,1.1-1.6l90.8-173.2c1.7-3.2,1.5-7-0.3-10S384,385.8,380.4,385.8z"/>
</g>
</svg>
