<?xml version="1.0" encoding="utf-8"?>
<!-- Generator: Adobe Illustrator 18.0.0, SVG Export Plug-In . SVG Version: 6.00 Build 0)  -->
<!DOCTYPE svg PUBLIC "-//W3C//DTD SVG 1.1//EN" "http://www.w3.org/Graphics/SVG/1.1/DTD/svg11.dtd">
<svg version="1.1" id="Layer_1" xmlns="http://www.w3.org/2000/svg" xmlns:xlink="http://www.w3.org/1999/xlink" x="0px" y="0px"
	 viewBox="0 0 612 792" enable-background="new 0 0 612 792" xml:space="preserve">
<path d="M511.6,363.1v196.7h-32.8V363.1H511.6z M413.2,559.8v32.8H282.1v-32.8h98.3V527h32.8V395.9H446v-32.8h32.7v-32.7H446v-32.8
	h-65.6V232h-32.7v-65.5h-32.8v131.1h-65.5v32.8h-32.8v32.7h-32.7v196.7h32.7v32.8h32.8v32.7H446v-32.7h32.7v-32.8H413.2z
	 M314.9,166.5v-32.8h-65.5v32.8C249.3,166.5,314.9,166.5,314.9,166.5z M249.3,166.5h-32.8V232h32.8V166.5z M183.8,297.6v32.8h32.7
	v-32.8H183.8z M216.5,264.8V232H151v-65.5h-32.7V232H85.4v32.7h32.8v65.6H151v-32.8h32.8v-32.8H216.5z"/>
</svg>
